<svg version="1.1" xmlns="http://www.w3.org/2000/svg" width="964" height="304"><defs><clipPath id="vVNsHTNiXLkC"><path fill="none" stroke="none" d="M 55.5 31.5 L 934.5 31.5 L 934.5 216.5 L 55.5 216.5 L 55.5 31.5 Z"/></clipPath><clipPath id="knkalaNOXfek"><path fill="none" stroke="none" d="M 55.5 31.5 L 934.5 31.5 L 934.5 216.5 L 55.5 216.5 L 55.5 31.5 Z"/></clipPath><clipPath id="NaGPcxGVFrID"><path fill="none" stroke="none" d="M 55.5 31.5 L 934.5 31.5 L 934.5 216.5 L 55.5 216.5 L 55.5 31.5 Z"/></clipPath><clipPath id="fbhhWVdnmlbd"><path fill="none" stroke="none" d="M 55.5 31.5 L 934.5 31.5 L 934.5 216.5 L 55.5 216.5 L 55.5 31.5 Z"/></clipPath></defs><path fill="rgb(255,255,255)" stroke="none" paint-order="stroke" d="M 0.5 0.5 L 964.5 0.5 L 964.5 304.5 L 0.5 304.5 L 0.5 0.5 Z" fill-opacity="1"/><rect fill="#FFFFFF" stroke="none" x="55" y="31" width="879" height="185" transform="matrix(1, 0, 0, 1, 0.5, 0.5)"/><path fill="rgb(255,255,255)" stroke="none" paint-order="stroke" d="M 55.5 31.5 L 934.5 31.5 L 934.5 216.5 L 55.5 216.5 L 55.5 31.5 Z" fill-opacity="1"/><path fill="none" stroke="rgb(229,229,229)" paint-order="fill" d="M 55.5 31.5 L 934.5 31.5 L 934.5 216.5 L 55.5 216.5 L 55.5 31.5 Z" stroke-opacity="1" stroke-linejoin="bevel" stroke-miterlimit="10"/><path fill="none" stroke="rgb(229,229,229)" paint-order="fill" d="M 243.5 216.5 L 243.5 31.5 M 437.5 216.5 L 437.5 31.5 M 631.5 216.5 L 631.5 31.5 M 829.5 216.5 L 829.5 31.5" stroke-opacity="1" stroke-linejoin="bevel" stroke-miterlimit="10" clip-path="url(#vVNsHTNiXLkC)"/><path fill="none" stroke="rgb(229,229,229)" paint-order="fill" d="M 55.5 208.5 L 934.5 208.5 M 55.5 182.5 L 934.5 182.5 M 55.5 157.5 L 934.5 157.5 M 55.5 132.5 L 934.5 132.5 M 55.5 106.5 L 934.5 106.5 M 55.5 81.5 L 934.5 81.5 M 55.5 55.5 L 934.5 55.5" stroke-opacity="1" stroke-linejoin="bevel" stroke-miterlimit="10" clip-path="url(#knkalaNOXfek)"/><path fill="none" stroke="rgb(0,0,0)" paint-order="fill" d="M 55.5 161.3032989501953 L 58.684783935546875 199.7477569580078 L 61.869564056396484 203.83056640625 L 65.0543441772461 202.38510131835938 L 68.23912811279297 170.1790008544922 L 71.42391204833984 183.06143188476562 L 74.60869598388672 187.7528839111328 L 77.7934799194336 202.23294067382812 L 80.97826385498047 200.7874755859375 L 84.16304016113281 191.53138732910156 L 87.34782409667969 148.0911865234375 L 90.53260803222656 188.64044189453125 L 93.71739196777344 204.9210205078125 L 96.90217590332031 202.6894073486328 L 100.08695983886719 206.34112548828125 L 103.27173614501953 199.24057006835938 L 106.4565200805664 192.95150756835938 L 109.64130401611328 207.20333862304688 L 112.82608795166016 207.7358856201172 L 116.01087188720703 208.09091186523438 L 119.1956558227539 207.35549926757812 L 122.38043212890625 208.0655517578125 L 125.56521606445312 208.09091186523438 L 128.75 208.09091186523438 L 131.93478393554688 206.8483123779297 L 135.11956787109375 208.09091186523438 L 138.30435180664062 208.09091186523438 L 141.4891357421875 208.09091186523438 L 144.67391967773438 208.09091186523438 L 147.8586883544922 208.09091186523438 L 151.04347229003906 207.88803100585938 L 154.22825622558594 207.8119659423828 L 157.4130401611328 200.4578094482422 L 160.5978240966797 203.4755401611328 L 163.78260803222656 206.97511291503906 L 166.96739196777344 207.88803100585938 L 170.1521759033203 206.1636199951172 L 173.3369598388672 194.21945190429688 L 176.52174377441406 207.45692443847656 L 179.70652770996094 207.177978515625 L 182.8913116455078 184.12652587890625 L 186.07608032226562 201.7764892578125 L 189.2608642578125 197.4400634765625 L 192.44564819335938 195.0816650390625 L 195.63043212890625 206.6454315185547 L 198.81521606445312 207.2794189453125 L 202 154.76063537597656 L 205.18478393554688 102.01362609863281 L 208.36956787109375 120.98226165771484 L 211.55435180664062 81.85311126708984 L 214.7391357421875 196.83145141601562 L 217.92391967773438 206.08753967285156 L 221.1086883544922 206.1636199951172 L 224.29347229003906 203.12051391601562 L 227.47825622558594 207.83731079101562 L 230.6630401611328 206.6454315185547 L 233.8478240966797 208.01483154296875 L 237.03260803222656 204.4645538330078 L 240.21739196777344 207.55836486816406 L 243.4021759033203 200.38172912597656 L 246.5869598388672 195.96923828125 L 249.77174377441406 194.11802673339844 L 252.95652770996094 200.73675537109375 L 256.1413116455078 204.5659942626953 L 259.3260803222656 207.30477905273438 L 262.5108642578125 208.0655517578125 L 265.6956481933594 207.93875122070312 L 268.88043212890625 205.80859375 L 272.0652160644531 207.8626708984375 L 275.25 188.94476318359375 L 278.4347839355469 201.09178161621094 L 281.61956787109375 200.63531494140625 L 284.8043518066406 206.11289978027344 L 287.9891357421875 201.16786193847656 L 291.1739196777344 204.94638061523438 L 294.35870361328125 206.34112548828125 L 297.5434875488281 205.40284729003906 L 300.728271484375 204.43919372558594 L 303.9130554199219 205.73251342773438 L 307.09783935546875 207.91339111328125 L 310.2826232910156 208.0655517578125 L 313.4673767089844 208.09091186523438 L 316.65216064453125 207.4315643310547 L 319.8369445800781 205.22532653808594 L 323.021728515625 203.65306091308594 L 326.2065124511719 197.05967712402344 L 329.39129638671875 196.45106506347656 L 332.5760803222656 207.40621948242188 L 335.7608642578125 207.76124572753906 L 338.9456481933594 207.83731079101562 L 342.13043212890625 205.5042724609375 L 345.3152160644531 204.69277954101562 L 348.5 172.6641845703125 L 351.6847839355469 190.31414794921875 L 354.86956787109375 185.0901641845703 L 358.0543518066406 201.2439422607422 L 361.2391357421875 200.17886352539062 L 364.4239196777344 206.77223205566406 L 367.60870361328125 200.71139526367188 L 370.7934875488281 208.09091186523438 L 373.978271484375 207.68516540527344 L 377.1630554199219 206.56936645507812 L 380.34783935546875 208.0655517578125 L 383.5326232910156 208.09091186523438 L 386.7173767089844 208.0655517578125 L 389.90216064453125 207.48228454589844 L 393.0869445800781 208.01483154296875 L 396.271728515625 198.47979736328125 L 399.4565124511719 203.8052215576172 L 402.64129638671875 208.09091186523438 L 405.8260803222656 208.0655517578125 L 409.0108642578125 206.1382598876953 L 412.1956481933594 203.1458740234375 L 415.38043212890625 146.6457061767578 L 418.5652160644531 208.0655517578125 L 421.75 208.09091186523438 L 424.9347839355469 208.04019165039062 L 428.11956787109375 208.0655517578125 L 431.3043518066406 207.93875122070312 L 434.4891357421875 208.0655517578125 L 437.6739196777344 198.47979736328125 L 440.85870361328125 205.55499267578125 L 444.0434875488281 208.09091186523438 L 447.228271484375 206.8483123779297 L 450.4130554199219 208.09091186523438 L 453.59783935546875 208.09091186523438 L 456.7826232910156 208.09091186523438 L 459.9673767089844 208.09091186523438 L 463.15216064453125 208.09091186523438 L 466.3369445800781 208.09091186523438 L 469.521728515625 208.09091186523438 L 472.7065124511719 208.09091186523438 L 475.89129638671875 208.09091186523438 L 479.0760803222656 208.09091186523438 L 482.2608642578125 208.09091186523438 L 485.4456481933594 208.09091186523438 L 488.63043212890625 208.09091186523438 L 491.8152160644531 208.09091186523438 L 495 208.09091186523438 L 498.1847839355469 208.09091186523438 L 501.36956787109375 208.09091186523438 L 504.5543518066406 208.09091186523438 L 507.7391357421875 207.8626708984375 L 510.9239196777344 208.09091186523438 L 514.1087036132812 208.09091186523438 L 517.29345703125 208.09091186523438 L 520.478271484375 208.09091186523438 L 523.6630249023438 207.8119659423828 L 526.8478393554688 208.09091186523438 L 530.0325927734375 208.09091186523438 L 533.2174072265625 208.09091186523438 L 536.4021606445312 208.09091186523438 L 539.5869750976562 208.09091186523438 L 542.771728515625 208.09091186523438 L 545.95654296875 208.09091186523438 L 549.1412963867188 198.83482360839844 L 552.3261108398438 207.964111328125 L 555.5108642578125 208.09091186523438 L 558.6956787109375 199.26593017578125 L 561.8804321289062 39.90909194946289 L 565.0652465820312 197.46542358398438 L 568.25 207.10189819335938 L 571.4347534179688 208.09091186523438 L 574.6195678710938 208.09091186523438 L 577.8043212890625 208.09091186523438 L 580.9891357421875 208.09091186523438 L 584.1738891601562 207.93875122070312 L 587.3587036132812 208.09091186523438 L 590.54345703125 208.09091186523438 L 593.728271484375 208.09091186523438 L 596.9130249023438 208.09091186523438 L 600.0978393554688 208.09091186523438 L 603.2825927734375 208.09091186523438 L 606.4674072265625 208.09091186523438 L 609.6521606445312 208.09091186523438 L 612.8369750976562 208.09091186523438 L 616.021728515625 208.09091186523438 L 619.20654296875 208.09091186523438 L 622.3912963867188 208.09091186523438 L 625.5761108398438 208.09091186523438 L 628.7608642578125 208.09091186523438 L 631.9456787109375 208.0655517578125 L 635.1304321289062 207.5330047607422 L 638.3152465820312 205.8592987060547 L 641.5 202.76548767089844 L 644.6847534179688 208.09091186523438 L 647.8695678710938 208.09091186523438 L 651.0543212890625 208.01483154296875 L 654.2391357421875 143.67869567871094 L 657.4238891601562 204.54063415527344 L 660.6087036132812 208.09091186523438 L 663.79345703125 208.09091186523438 L 666.978271484375 208.09091186523438 L 670.1630249023438 208.09091186523438 L 673.3478393554688 208.09091186523438 L 676.5325927734375 208.09091186523438 L 679.7174072265625 208.09091186523438 L 682.9021606445312 208.09091186523438 L 686.0869750976562 208.09091186523438 L 689.271728515625 207.78660583496094 L 692.45654296875 207.98947143554688 L 695.6412963867188 207.98947143554688 L 698.8261108398438 208.09091186523438 L 702.0108642578125 207.20333862304688 L 705.1956787109375 207.6344451904297 L 708.3804321289062 203.88128662109375 L 711.5652465820312 207.98947143554688 L 714.75 208.09091186523438 L 717.9347534179688 208.0655517578125 L 721.1195678710938 208.09091186523438 L 724.3043212890625 208.09091186523438 L 727.4891357421875 208.09091186523438 L 730.6738891601562 208.09091186523438 L 733.8587036132812 208.09091186523438 L 737.04345703125 208.09091186523438 L 740.228271484375 208.09091186523438 L 743.4130249023438 208.09091186523438 L 746.5978393554688 207.98947143554688 L 749.7825927734375 206.0368194580078 L 752.9674072265625 208.01483154296875 L 756.1521606445312 207.98947143554688 L 759.3369750976562 208.09091186523438 L 762.521728515625 208.09091186523438 L 765.70654296875 208.01483154296875 L 768.8912963867188 208.09091186523438 L 772.0761108398438 208.09091186523438 L 775.2608642578125 208.01483154296875 L 778.4456787109375 207.5076446533203 L 781.6304321289062 207.7358856201172 L 784.8152465820312 208.0655517578125 L 788 208.0655517578125 L 791.1847534179688 208.09091186523438 L 794.3695678710938 208.09091186523438 L 797.5543212890625 208.09091186523438 L 800.7391357421875 208.09091186523438 L 803.9238891601562 208.09091186523438 L 807.1087036132812 208.09091186523438 L 810.29345703125 208.09091186523438 L 813.478271484375 208.09091186523438 L 816.6630249023438 208.09091186523438 L 819.8478393554688 208.09091186523438 L 823.0325927734375 208.09091186523438 L 826.2174072265625 208.09091186523438 L 829.4021606445312 208.09091186523438 L 832.5869750976562 208.09091186523438 L 835.771728515625 208.09091186523438 L 838.95654296875 208.09091186523438 L 842.1412963867188 208.09091186523438 L 845.3261108398438 208.09091186523438 L 848.5108642578125 208.09091186523438 L 851.6956787109375 208.01483154296875 L 854.8804321289062 207.30477905273438 L 858.0652465820312 208.09091186523438 L 861.25 208.09091186523438 L 864.4347534179688 208.09091186523438 L 867.6195678710938 208.09091186523438 L 870.8043212890625 208.09091186523438 L 873.9891357421875 208.09091186523438 L 877.1738891601562 208.09091186523438 L 880.3587036132812 208.09091186523438 L 883.54345703125 208.09091186523438 L 886.728271484375 208.09091186523438 L 889.9130249023438 208.09091186523438 L 893.0978393554688 208.09091186523438 L 896.2825927734375 208.0655517578125 L 899.4674072265625 208.0655517578125 L 902.6521606445312 206.18898010253906 L 905.8369750976562 203.6784210205078 L 909.021728515625 208.09091186523438 L 912.20654296875 208.04019165039062 L 915.3912963867188 207.20333862304688 L 918.5761108398438 205.9353790283203 L 921.7608642578125 207.5330047607422 L 924.9456787109375 208.09091186523438" stroke-opacity="1" stroke-linejoin="bevel" stroke-miterlimit="10" stroke-width="1.75" clip-path="url(#NaGPcxGVFrID)"/><path fill="none" stroke="rgb(91,91,91)" paint-order="fill" d="M 55.5 216.5 L 934.5 216.5" stroke-opacity="1" stroke-linejoin="bevel" stroke-miterlimit="10"/><path fill="none" stroke="rgb(91,91,91)" paint-order="fill" d="M 55.5 219.5 L 55.5 216.5 M 243.5 219.5 L 243.5 216.5 M 437.5 219.5 L 437.5 216.5 M 631.5 219.5 L 631.5 216.5 M 829.5 219.5 L 829.5 216.5" stroke-opacity="0.25098039215686274" stroke-linejoin="bevel" stroke-miterlimit="10"/><path fill="none" stroke="rgb(91,91,91)" paint-order="fill" d="" stroke-opacity="0.25098039215686274" stroke-linejoin="bevel" stroke-miterlimit="10"/><text fill="rgb(91,91,91)" stroke="none" font-family="Calibri Light" font-size="12.35px" font-style="normal" font-weight="bold" text-decoration="normal" x="37.114234924316406" y="236" text-anchor="start" dominant-baseline="alphabetic" transform="matrix(1, 0, 0, 1, 0.5, 0.5)" fill-opacity="1">1/2025</text><text fill="none" stroke="rgb(0,0,0)" font-family="Calibri Light" font-size="12.35px" font-style="normal" font-weight="bold" text-decoration="normal" x="37.114234924316406" y="236" text-anchor="start" dominant-baseline="alphabetic" transform="matrix(1, 0, 0, 1, 0.5, 0.5)" stroke-opacity="0" stroke-linejoin="bevel" stroke-miterlimit="10">1/2025</text><text fill="rgb(91,91,91)" stroke="none" font-family="Calibri Light" font-size="12.35px" font-style="normal" font-weight="bold" text-decoration="normal" x="225.01641082763672" y="236" text-anchor="start" dominant-baseline="alphabetic" transform="matrix(1, 0, 0, 1, 0.5, 0.5)" fill-opacity="1">3/2025</text><text fill="none" stroke="rgb(0,0,0)" font-family="Calibri Light" font-size="12.35px" font-style="normal" font-weight="bold" text-decoration="normal" x="225.01641082763672" y="236" text-anchor="start" dominant-baseline="alphabetic" transform="matrix(1, 0, 0, 1, 0.5, 0.5)" stroke-opacity="0" stroke-linejoin="bevel" stroke-miterlimit="10">3/2025</text><text fill="rgb(91,91,91)" stroke="none" font-family="Calibri Light" font-size="12.35px" font-style="normal" font-weight="bold" text-decoration="normal" x="419.2881546020508" y="236" text-anchor="start" dominant-baseline="alphabetic" transform="matrix(1, 0, 0, 1, 0.5, 0.5)" fill-opacity="1">5/2025</text><text fill="none" stroke="rgb(0,0,0)" font-family="Calibri Light" font-size="12.35px" font-style="normal" font-weight="bold" text-decoration="normal" x="419.2881546020508" y="236" text-anchor="start" dominant-baseline="alphabetic" transform="matrix(1, 0, 0, 1, 0.5, 0.5)" stroke-opacity="0" stroke-linejoin="bevel" stroke-miterlimit="10">5/2025</text><text fill="rgb(91,91,91)" stroke="none" font-family="Calibri Light" font-size="12.35px" font-style="normal" font-weight="bold" text-decoration="normal" x="613.5599136352539" y="236" text-anchor="start" dominant-baseline="alphabetic" transform="matrix(1, 0, 0, 1, 0.5, 0.5)" fill-opacity="1">7/2025</text><text fill="none" stroke="rgb(0,0,0)" font-family="Calibri Light" font-size="12.35px" font-style="normal" font-weight="bold" text-decoration="normal" x="613.5599136352539" y="236" text-anchor="start" dominant-baseline="alphabetic" transform="matrix(1, 0, 0, 1, 0.5, 0.5)" stroke-opacity="0" stroke-linejoin="bevel" stroke-miterlimit="10">7/2025</text><text fill="rgb(91,91,91)" stroke="none" font-family="Calibri Light" font-size="12.35px" font-style="normal" font-weight="bold" text-decoration="normal" x="811.0163955688477" y="236" text-anchor="start" dominant-baseline="alphabetic" transform="matrix(1, 0, 0, 1, 0.5, 0.5)" fill-opacity="1">9/2025</text><text fill="none" stroke="rgb(0,0,0)" font-family="Calibri Light" font-size="12.35px" font-style="normal" font-weight="bold" text-decoration="normal" x="811.0163955688477" y="236" text-anchor="start" dominant-baseline="alphabetic" transform="matrix(1, 0, 0, 1, 0.5, 0.5)" stroke-opacity="0" stroke-linejoin="bevel" stroke-miterlimit="10">9/2025</text><text fill="rgb(91,91,91)" stroke="none" font-family="Calibri Light" font-size="14.95px" font-style="normal" font-weight="bold" text-decoration="normal" x="479.63031005859375" y="266" text-anchor="start" dominant-baseline="alphabetic" transform="matrix(1, 0, 0, 1, 0.5, 0.5)" fill-opacity="1">Time</text><text fill="none" stroke="rgb(0,0,0)" font-family="Calibri Light" font-size="14.95px" font-style="normal" font-weight="bold" text-decoration="normal" x="479.63031005859375" y="266" text-anchor="start" dominant-baseline="alphabetic" transform="matrix(1, 0, 0, 1, 0.5, 0.5)" stroke-opacity="0" stroke-linejoin="bevel" stroke-miterlimit="10">Time</text><path fill="none" stroke="rgb(91,91,91)" paint-order="fill" d="M 55.5 216.5 L 55.5 31.5" stroke-opacity="1" stroke-linejoin="bevel" stroke-miterlimit="10"/><path fill="none" stroke="rgb(91,91,91)" paint-order="fill" d="M 52.5 208.5 L 55.5 208.5 M 52.5 182.5 L 55.5 182.5 M 52.5 157.5 L 55.5 157.5 M 52.5 132.5 L 55.5 132.5 M 52.5 106.5 L 55.5 106.5 M 52.5 81.5 L 55.5 81.5 M 52.5 55.5 L 55.5 55.5" stroke-opacity="0.25098039215686274" stroke-linejoin="bevel" stroke-miterlimit="10"/><path fill="none" stroke="rgb(91,91,91)" paint-order="fill" d="M 51.5 213.5 L 55.5 213.5 M 51.5 208.5 L 55.5 208.5 M 51.5 203.5 L 55.5 203.5 M 51.5 197.5 L 55.5 197.5 M 51.5 192.5 L 55.5 192.5 M 51.5 187.5 L 55.5 187.5 M 51.5 182.5 L 55.5 182.5 M 51.5 177.5 L 55.5 177.5 M 51.5 172.5 L 55.5 172.5 M 51.5 167.5 L 55.5 167.5 M 51.5 162.5 L 55.5 162.5 M 51.5 157.5 L 55.5 157.5 M 51.5 152.5 L 55.5 152.5 M 51.5 147.5 L 55.5 147.5 M 51.5 142.5 L 55.5 142.5 M 51.5 137.5 L 55.5 137.5 M 51.5 132.5 L 55.5 132.5 M 51.5 126.5 L 55.5 126.5 M 51.5 121.5 L 55.5 121.5 M 51.5 116.5 L 55.5 116.5 M 51.5 111.5 L 55.5 111.5 M 51.5 106.5 L 55.5 106.5 M 51.5 101.5 L 55.5 101.5 M 51.5 96.5 L 55.5 96.5 M 51.5 91.5 L 55.5 91.5 M 51.5 86.5 L 55.5 86.5 M 51.5 81.5 L 55.5 81.5 M 51.5 76.5 L 55.5 76.5 M 51.5 71.5 L 55.5 71.5 M 51.5 66.5 L 55.5 66.5 M 51.5 61.5 L 55.5 61.5 M 51.5 55.5 L 55.5 55.5 M 51.5 50.5 L 55.5 50.5 M 51.5 45.5 L 55.5 45.5 M 51.5 40.5 L 55.5 40.5 M 51.5 35.5 L 55.5 35.5" stroke-opacity="0.25098039215686274" stroke-linejoin="bevel" stroke-miterlimit="10"/><text fill="rgb(91,91,91)" stroke="none" font-family="Calibri Light" font-size="12.35px" font-style="normal" font-weight="bold" text-decoration="normal" x="40.74058532714844" y="212.09091186523438" text-anchor="start" dominant-baseline="alphabetic" transform="matrix(1, 0, 0, 1, 0.5, 0.5)" fill-opacity="1">0</text><text fill="none" stroke="rgb(0,0,0)" font-family="Calibri Light" font-size="12.35px" font-style="normal" font-weight="bold" text-decoration="normal" x="40.74058532714844" y="212.09091186523438" text-anchor="start" dominant-baseline="alphabetic" transform="matrix(1, 0, 0, 1, 0.5, 0.5)" stroke-opacity="0" stroke-linejoin="bevel" stroke-miterlimit="10">0</text><text fill="rgb(91,91,91)" stroke="none" font-family="Calibri Light" font-size="12.35px" font-style="normal" font-weight="bold" text-decoration="normal" x="34.481170654296875" y="186.7317657470703" text-anchor="start" dominant-baseline="alphabetic" transform="matrix(1, 0, 0, 1, 0.5, 0.5)" fill-opacity="1">10</text><text fill="none" stroke="rgb(0,0,0)" font-family="Calibri Light" font-size="12.35px" font-style="normal" font-weight="bold" text-decoration="normal" x="34.481170654296875" y="186.7317657470703" text-anchor="start" dominant-baseline="alphabetic" transform="matrix(1, 0, 0, 1, 0.5, 0.5)" stroke-opacity="0" stroke-linejoin="bevel" stroke-miterlimit="10">10</text><text fill="rgb(91,91,91)" stroke="none" font-family="Calibri Light" font-size="12.35px" font-style="normal" font-weight="bold" text-decoration="normal" x="34.481170654296875" y="161.3726348876953" text-anchor="start" dominant-baseline="alphabetic" transform="matrix(1, 0, 0, 1, 0.5, 0.5)" fill-opacity="1">20</text><text fill="none" stroke="rgb(0,0,0)" font-family="Calibri Light" font-size="12.35px" font-style="normal" font-weight="bold" text-decoration="normal" x="34.481170654296875" y="161.3726348876953" text-anchor="start" dominant-baseline="alphabetic" transform="matrix(1, 0, 0, 1, 0.5, 0.5)" stroke-opacity="0" stroke-linejoin="bevel" stroke-miterlimit="10">20</text><text fill="rgb(91,91,91)" stroke="none" font-family="Calibri Light" font-size="12.35px" font-style="normal" font-weight="bold" text-decoration="normal" x="34.481170654296875" y="136.01348876953125" text-anchor="start" dominant-baseline="alphabetic" transform="matrix(1, 0, 0, 1, 0.5, 0.5)" fill-opacity="1">30</text><text fill="none" stroke="rgb(0,0,0)" font-family="Calibri Light" font-size="12.35px" font-style="normal" font-weight="bold" text-decoration="normal" x="34.481170654296875" y="136.01348876953125" text-anchor="start" dominant-baseline="alphabetic" transform="matrix(1, 0, 0, 1, 0.5, 0.5)" stroke-opacity="0" stroke-linejoin="bevel" stroke-miterlimit="10">30</text><text fill="rgb(91,91,91)" stroke="none" font-family="Calibri Light" font-size="12.35px" font-style="normal" font-weight="bold" text-decoration="normal" x="34.481170654296875" y="110.65435028076172" text-anchor="start" dominant-baseline="alphabetic" transform="matrix(1, 0, 0, 1, 0.5, 0.5)" fill-opacity="1">40</text><text fill="none" stroke="rgb(0,0,0)" font-family="Calibri Light" font-size="12.35px" font-style="normal" font-weight="bold" text-decoration="normal" x="34.481170654296875" y="110.65435028076172" text-anchor="start" dominant-baseline="alphabetic" transform="matrix(1, 0, 0, 1, 0.5, 0.5)" stroke-opacity="0" stroke-linejoin="bevel" stroke-miterlimit="10">40</text><text fill="rgb(91,91,91)" stroke="none" font-family="Calibri Light" font-size="12.35px" font-style="normal" font-weight="bold" text-decoration="normal" x="34.481170654296875" y="85.29520416259766" text-anchor="start" dominant-baseline="alphabetic" transform="matrix(1, 0, 0, 1, 0.5, 0.5)" fill-opacity="1">50</text><text fill="none" stroke="rgb(0,0,0)" font-family="Calibri Light" font-size="12.35px" font-style="normal" font-weight="bold" text-decoration="normal" x="34.481170654296875" y="85.29520416259766" text-anchor="start" dominant-baseline="alphabetic" transform="matrix(1, 0, 0, 1, 0.5, 0.5)" stroke-opacity="0" stroke-linejoin="bevel" stroke-miterlimit="10">50</text><text fill="rgb(91,91,91)" stroke="none" font-family="Calibri Light" font-size="12.35px" font-style="normal" font-weight="bold" text-decoration="normal" x="34.481170654296875" y="59.936065673828125" text-anchor="start" dominant-baseline="alphabetic" transform="matrix(1, 0, 0, 1, 0.5, 0.5)" fill-opacity="1">60</text><text fill="none" stroke="rgb(0,0,0)" font-family="Calibri Light" font-size="12.35px" font-style="normal" font-weight="bold" text-decoration="normal" x="34.481170654296875" y="59.936065673828125" text-anchor="start" dominant-baseline="alphabetic" transform="matrix(1, 0, 0, 1, 0.5, 0.5)" stroke-opacity="0" stroke-linejoin="bevel" stroke-miterlimit="10">60</text><text fill="rgb(91,91,91)" stroke="none" font-family="Calibri Light" font-size="14.95px" font-style="normal" font-weight="bold" text-decoration="normal" x="-79.09542846679688" y="119.5" text-anchor="start" dominant-baseline="alphabetic" transform="matrix(6.123233995736766e-17, -1, 1, 6.123233995736766e-17, -101.51882934570312, 145.48117065429688)" fill-opacity="1">Precipitation Corrected (mm/day)</text><text fill="none" stroke="rgb(0,0,0)" font-family="Calibri Light" font-size="14.95px" font-style="normal" font-weight="bold" text-decoration="normal" x="-79.09542846679688" y="119.5" text-anchor="start" dominant-baseline="alphabetic" transform="matrix(6.123233995736766e-17, -1, 1, 6.123233995736766e-17, -101.51882934570312, 145.48117065429688)" stroke-opacity="0" stroke-linejoin="bevel" stroke-miterlimit="10">Precipitation Corrected (mm/day)</text><text fill="rgb(91,91,91)" stroke="none" font-family="Calibri Light" font-size="16.25px" font-style="normal" font-weight="normal" text-decoration="normal" x="55" y="295" text-anchor="start" dominant-baseline="alphabetic" transform="matrix(1, 0, 0, 1, 0.5, 0.5)" fill-opacity="1">Source: GMAO MERRA-2 &amp; GEOS IT data accessed from NASA POWER at 2025-10-04 14:26:53 UTC.</text><text fill="none" stroke="rgb(0,0,0)" font-family="Calibri Light" font-size="16.25px" font-style="normal" font-weight="normal" text-decoration="normal" x="55" y="295" text-anchor="start" dominant-baseline="alphabetic" transform="matrix(1, 0, 0, 1, 0.5, 0.5)" stroke-opacity="0" stroke-miterlimit="10" stroke-dasharray="">Source: GMAO MERRA-2 &amp; GEOS IT data accessed from NASA POWER at 2025-10-04 14:26:53 UTC.</text><text fill="rgb(91,91,91)" stroke="none" font-family="Calibri Light" font-size="16.25px" font-style="normal" font-weight="bold" text-decoration="normal" x="55" y="22" text-anchor="start" dominant-baseline="alphabetic" transform="matrix(1, 0, 0, 1, 0.5, 0.5)" fill-opacity="1">Time Series of Daily Precipitation Corrected 2025/01/01 to 2025/10/04 in LST (Lat: -25.67, Lon: 27.0)</text><text fill="none" stroke="rgb(0,0,0)" font-family="Calibri Light" font-size="16.25px" font-style="normal" font-weight="bold" text-decoration="normal" x="55" y="22" text-anchor="start" dominant-baseline="alphabetic" transform="matrix(1, 0, 0, 1, 0.5, 0.5)" stroke-opacity="0" stroke-miterlimit="10" stroke-dasharray="">Time Series of Daily Precipitation Corrected 2025/01/01 to 2025/10/04 in LST (Lat: -25.67, Lon: 27.0)</text></svg>